<?xml version="1.0" encoding="UTF-8"?>
<svg id="Layer_1" data-name="Layer 1" xmlns="http://www.w3.org/2000/svg" xmlns:xlink="http://www.w3.org/1999/xlink" viewBox="0 0 462.19 462.19">
  <defs>
    <style>
      .cls-1 {
        fill: url(#linear-gradient);
      }

      .cls-1, .cls-2, .cls-3 {
        stroke-width: 0px;
      }

      .cls-2 {
        fill: url(#linear-gradient-2);
      }

      .cls-3 {
        fill: url(#linear-gradient-3);
      }
    </style>
    <linearGradient id="linear-gradient" x1="108.79" y1="52.75" x2="434.37" y2="271.35" gradientUnits="userSpaceOnUse">
      <stop offset="0" stop-color="#03fcea"/>
      <stop offset=".3" stop-color="#03fcea"/>
      <stop offset=".71" stop-color="#fc0315"/>
      <stop offset="1" stop-color="#fc0315"/>
    </linearGradient>
    <linearGradient id="linear-gradient-2" x1="21.16" y1="183.26" x2="346.74" y2="401.86" xlink:href="#linear-gradient"/>
    <linearGradient id="linear-gradient-3" x1="13.54" y1="194.62" x2="339.12" y2="413.22" xlink:href="#linear-gradient"/>
  </defs>
  <path class="cls-1" d="m290.2,289.91c15.48-37.52,30.81-74.65,46.12-111.75h69.49c-.16.99-.22,1.85-.43,2.67-.37,1.41-1.38,2.13-2.81,2.16-1.61.03-3.23-.01-4.84-.06-2.94-.09-5.76.37-8.41,1.68-4.04,2-6.45,5.26-6.95,9.72-.4,3.6-.6,7.24-.61,10.86-.04,38.67-.04,77.33,0,116,0,3.56.33,7.11.58,10.66.25,3.53,2.01,6.2,4.87,8.2,3.13,2.18,6.59,3.3,10.42,3.2,1.34-.04,2.69-.09,4.03-.1,2.8,0,3.75.86,4.03,3.62.03.33,0,.67,0,.99-1.48.42-86.52.51-88.82.08.04-.63.01-1.3.12-1.94.32-1.83,1.28-2.7,3.16-2.76,1.88-.05,3.77.04,5.65.03,2.8-.02,5.47-.66,7.94-2,3.47-1.88,5.72-4.82,6.18-8.69.53-4.46.79-8.98.79-13.47.06-40.95.03-81.91.03-122.86,0-.59,0-1.18,0-1.74-.2-.04-.27-.08-.33-.06-.06.01-.12.06-.16.11-.08.1-.17.21-.22.33-21.47,51.03-42.93,102.06-64.44,153.19h-3.13c-.25-.53-.54-1.12-.8-1.73-14.71-34.19-29.41-68.39-44.16-102.57-.63-1.45-.55-2.53.24-3.89,18.07-31.41,36.9-62.36,55.94-93.18,6.32-10.24,12.65-20.47,18.79-30.82,3.77-6.36,7.43-12.78,11.82-18.75,8.11-11.03,17.46-20.81,28.81-28.54,8.39-5.72,17.37-10.21,27.37-12.42,4.62-1.02,9.3-1.56,14.02-.86,8.3,1.24,13.78,5.97,16.54,13.83,2.78,7.9,1.85,15.3-3.64,21.75-3.71,4.37-8.6,6.67-14.43,6.3-6.13-.39-10.57-6.15-9.31-12.17.6-2.87,1.71-5.64,2.72-8.41.72-1.97,1.53-3.91,1.35-6.04-.34-4-3.13-6.74-7.36-7.33-2.64-.37-5.22-.03-7.78.65-6.87,1.82-12.87,5.37-18.64,9.36-10.01,6.93-18.39,15.55-25.25,25.54-6.24,9.08-12.27,18.32-18.04,27.71-15.44,25.14-30.68,50.41-46.05,75.6-.83,1.37-.84,2.44-.23,3.87,11.68,27.38,23.3,54.78,34.94,82.18.21.49.45.97.86,1.87Z"/>
  <path class="cls-2" d="m181.72,297.56c-3.35.49-6.25,1-9.17,1.33-12.32,1.4-24.43.5-36.22-3.53-3.68-1.26-7.31-2.69-11-3.92-2.48-.82-5.01-1.52-7.55-2.11-5.16-1.2-11.96,3.08-13.85,6.51-1.75,3.19-3.39,3.86-7.2,3.25v-63.76c1.25-.2,2.29.3,3.06,1.11,1.1,1.16,2.23,2.38,2.97,3.78,1.72,3.26,3.2,6.66,4.81,9.98,2.08,4.29,4.07,8.63,6.32,12.83,8.73,16.25,27.74,26.08,41.59,27.4,7.6.72,15.04.36,22.21-2.51,5.24-2.1,9.66-5.36,12.91-9.98,5.31-7.53,5.78-15.43,1.18-23.49-3.03-5.32-7.49-9.29-12.55-12.61-6.25-4.11-12.98-7.34-19.75-10.46-10.8-4.98-21.58-9.99-31.84-16.06-6.39-3.78-12.41-8.04-17.58-13.42-6.02-6.28-10.53-13.44-12.29-22.07-2.88-14.17.05-26.99,9.38-38.13,8.95-10.69,20.44-17.04,34.19-19.26,15.22-2.46,29.85-.49,43.9,5.88,4.04,1.83,8.12,3.6,12.5,4.45,3,.58,5.75.1,7.93-2.31,1.02-1.14,1.62-2.46,1.89-3.94.06-.33.06-.67.1-1,.38-3.36,1.79-4.37,5.53-3.8.47,18.75.95,37.53,1.42,56.38-2.23.1-3.83-.75-4.96-2.23-1.21-1.59-2.3-3.31-3.18-5.11-1.48-3.01-2.72-6.14-4.12-9.2-2.71-5.91-6.04-11.43-10.87-15.87-7.99-7.35-17.15-12.49-28.01-14.14-7.7-1.17-15.29-.77-22.6,2.21-4.26,1.74-7.78,4.47-10.62,8.1-5.8,7.39-5.17,17.82.64,24.13,4,4.35,8.42,8.18,13.68,10.84,8.87,4.49,17.83,8.81,26.82,13.05,10.28,4.85,20.45,9.88,29.92,16.22,3.91,2.62,7.65,5.47,11.06,8.74,5,4.79,8.52,10.52,10.91,16.99.34.93.4,1.69-.16,2.64-12.99,22.3-25.77,44.72-38.95,66.92-9.71,16.35-19.86,32.45-29.93,48.58-6.13,9.82-12.81,19.25-20.58,27.88-8.93,9.91-19.24,17.96-31.37,23.61-6.44,3-13.16,5.05-20.26,5.73-4.2.4-8.32.04-12.31-1.44-3.78-1.4-6.86-3.72-9.04-7.1-3.75-5.83-5.41-12.09-3.61-19.01,1.97-7.57,8.38-13.4,16.15-14.49,8.16-1.15,13.73,6.38,11.84,12.93-.72,2.51-1.69,4.95-2.5,7.44-.5,1.53-1.13,3.06-1.31,4.63-.5,4.42,1.94,7.69,6.26,8.77,2.56.64,5.08.3,7.6-.2,3.18-.63,6.19-1.77,9.1-3.2,10.33-5.09,19.1-12.22,26.87-20.65,6.31-6.85,11.7-14.41,16.62-22.28,10.11-16.19,20.1-32.46,30.13-48.7,1.23-1.99,2.45-3.99,3.86-6.29Z"/>
  <path class="cls-3" d="m206.38,277.85c0,.7,0,1.41,0,2.11.03,15.05.08,30.1.07,45.16,0,6.24,2.83,10.92,7.72,14.51,2.79,2.05,5.98,2.98,9.42,3.13,1.28.05,2.56,0,3.83.13,2.55.27,3.5,1.33,3.69,3.91.02.33,0,.67,0,1.15h-58.11c-.03-.53-.08-.98-.07-1.43.08-3.04.56-3.4,3.54-3.43,2-.02,4.05-.13,5.99-.58,8.4-1.95,13.49-7.86,14.1-17.34.24-3.82.12-7.66.13-11.49.02-6.12.02-12.23-.01-18.35,0-1.11.22-2.08.8-3.04,2.6-4.39,5.13-8.83,7.7-13.24.25-.44.57-.84.85-1.25.12.02.24.04.36.06Z"/>
</svg>